<?xml version="1.0" encoding="UTF-8" standalone="no"?>
<!-- Created with Inkscape (http://www.inkscape.org/) -->

<svg
   xmlns:dc="http://purl.org/dc/elements/1.1/"
   xmlns:cc="http://creativecommons.org/ns#"
   xmlns:rdf="http://www.w3.org/1999/02/22-rdf-syntax-ns#"
   xmlns:svg="http://www.w3.org/2000/svg"
   xmlns="http://www.w3.org/2000/svg"
   xmlns:sodipodi="http://sodipodi.sourceforge.net/DTD/sodipodi-0.dtd"
   xmlns:inkscape="http://www.inkscape.org/namespaces/inkscape"
   width="210mm"
   height="297mm"
   viewBox="0 0 210 297"
   version="1.1"
   id="svg8"
   inkscape:version="0.92.4 (5da689c313, 2019-01-14)"
   sodipodi:docname="logo_new.svg">
  <defs
     id="defs2" />
  <sodipodi:namedview
     id="base"
     pagecolor="#ffffff"
     bordercolor="#666666"
     borderopacity="1.0"
     inkscape:pageopacity="0.0"
     inkscape:pageshadow="2"
     inkscape:zoom="0.35"
     inkscape:cx="398.60674"
     inkscape:cy="560"
     inkscape:document-units="mm"
     inkscape:current-layer="layer1"
     showgrid="false"
     inkscape:window-width="1920"
     inkscape:window-height="1013"
     inkscape:window-x="-9"
     inkscape:window-y="-9"
     inkscape:window-maximized="1" />
  <metadata
     id="metadata5">
    <rdf:RDF>
      <cc:Work
         rdf:about="">
        <dc:format>image/svg+xml</dc:format>
        <dc:type
           rdf:resource="http://purl.org/dc/dcmitype/StillImage" />
        <dc:title />
      </cc:Work>
    </rdf:RDF>
  </metadata>
  <g
     inkscape:label="Layer 1"
     inkscape:groupmode="layer"
     id="layer1">
    <path
       style="fill:#0088aa;stroke-width:1.13468051"
       d="M 434.28516 268.23438 A 294.2857 225.71427 0 0 0 140 493.94922 A 294.2857 225.71427 0 0 0 434.28516 719.66211 A 294.2857 225.71427 0 0 0 727.10938 516.35547 A 27.710813 42.321004 23.313142 0 1 726.20898 517.40234 A 27.710813 42.321004 23.313142 0 1 684.78906 519.01172 A 27.710813 42.321004 23.313142 0 1 696.64844 461.92383 A 27.710813 42.321004 23.313142 0 1 722.47852 449.39844 A 294.2857 225.71427 0 0 0 434.28516 268.23438 z "
       transform="scale(0.26458333)"
       id="path3717" />
    <path
       style="fill:#0088aa;stroke-width:0.30327681"
       d="m 78.082779,74.912243 a 59.335913,79.972674 76.561259 0 0 -58.643912,36.358527 81.278452,101.97409 75.731395 0 0 0.796748,15.45775 81.278452,101.97409 75.731395 0 0 89.204665,62.29557 59.335913,79.972674 76.561259 0 0 57.17441,-71.5185 59.335913,79.972674 76.561259 0 0 -88.531911,-42.593347 z"
       id="ellipse3723"
       inkscape:connector-curvature="0" />
    <ellipse
       style="fill:#0088aa;stroke-width:0.11777318"
       id="ellipse3723-6"
       cx="-110.747"
       cy="195.32442"
       rx="20.788689"
       ry="32.127975"
       transform="scale(-1,1)" />
    <ellipse
       style="fill:#0088aa;stroke-width:0.13281395"
       id="ellipse3723-6-3"
       cx="117.92856"
       cy="80.041672"
       rx="24.568451"
       ry="37.041664" />
    <ellipse
       style="fill:#0088aa;stroke-width:0.35101953"
       id="path3801"
       cx="35.151787"
       cy="-120.48513"
       rx="19.276785"
       ry="15.497024"
       transform="scale(1,-1)" />
    <ellipse
       style="fill:#0088aa;stroke-width:0.36412087"
       id="path3801-2"
       cx="39.6875"
       cy="-141.27382"
       rx="18.898809"
       ry="17.00893"
       transform="scale(1,-1)" />
    <ellipse
       style="fill:#0088aa;stroke-width:0.36412087"
       id="path3801-2-6"
       cx="-12.188365"
       cy="-165.84961"
       rx="18.898809"
       ry="17.00893"
       transform="matrix(0.92399245,-0.38241072,-0.38241072,-0.92399245,0,0)" />
    <circle
       style="fill:#ffffff;stroke-width:0.26458332"
       id="path3857"
       cx="168.1994"
       cy="113.68154"
       r="5.6696429" />
    <path
       style="fill:#aaeeff;stroke-width:0.30867797"
       d="m 90.970574,100.49877 a 27.203251,23.748636 71.291075 0 1 0.621816,1.25036 c 0.222511,-0.0498 0.445647,-0.0989 0.670646,-0.14374 -0.413183,-0.39195 -0.845296,-0.75976 -1.292461,-1.10661 z m 1.292461,1.10662 c 5.703196,5.3799 7.339891,14.2267 4.129527,22.32134 -2.691589,6.75214 -8.337075,11.89089 -14.923991,13.69926 a 27.203251,23.748636 71.291075 0 1 -1.299195,0.57605 c 0.905965,1.0433 1.891507,2.03847 2.955077,2.97272 11.707158,10.15311 29.664777,11.27389 40.109247,2.50328 10.44437,-8.77057 9.42056,-24.11108 -2.28676,-34.26393 -7.82215,-6.77784 -18.84686,-9.779132 -28.683905,-7.80872 z"
       id="path3861"
       inkscape:connector-curvature="0" />
    <ellipse
       style="fill:#87cdde;stroke-width:0.23811285"
       id="path25"
       cx="38.436527"
       cy="174.52298"
       rx="15.875"
       ry="5.291667"
       inkscape:transform-center-x="-14.119778"
       inkscape:transform-center-y="23.148446"
       transform="rotate(-6.1806542)" />
    <ellipse
       style="fill:#87cdde;stroke-width:0.23811285"
       id="path25-5"
       cx="25.819157"
       cy="154.78065"
       rx="15.875"
       ry="5.291667"
       inkscape:transform-center-x="-14.119778"
       inkscape:transform-center-y="23.148446"
       transform="rotate(-6.1806541)" />
    <ellipse
       style="fill:#87cdde;stroke-width:0.23811285"
       id="path25-4"
       cx="20.15645"
       cy="129.83553"
       rx="15.875"
       ry="5.291667"
       inkscape:transform-center-x="-14.119778"
       inkscape:transform-center-y="23.148446"
       transform="rotate(-6.1806541)" />
    <ellipse
       style="fill:#87cdde;stroke-width:0.18766788"
       id="path25-56"
       cx="109.25108"
       cy="144.34431"
       rx="10.614623"
       ry="4.9160452"
       inkscape:transform-center-x="1.8109771"
       inkscape:transform-center-y="23.451883"
       transform="matrix(0.94372612,0.33072801,-0.39909019,0.91691167,0,0)" />
    <ellipse
       style="fill:#87cdde;stroke-width:0.18766788"
       id="path25-56-7"
       cx="89.354172"
       cy="131.7393"
       rx="10.614623"
       ry="4.9160452"
       inkscape:transform-center-x="1.8109771"
       inkscape:transform-center-y="23.451883"
       transform="matrix(0.94372612,0.330728,-0.3990902,0.91691167,0,0)" />
    <ellipse
       style="fill:#87cdde;stroke-width:0.18766788"
       id="path25-56-78"
       cx="75.11129"
       cy="111.31858"
       rx="10.614623"
       ry="4.9160452"
       inkscape:transform-center-x="1.8109771"
       inkscape:transform-center-y="23.451883"
       transform="matrix(0.94372612,0.330728,-0.3990902,0.91691167,0,0)" />
    <ellipse
       style="fill:#87cdde;stroke-width:0.19247518"
       id="path25-56-9"
       cx="-170.93886"
       cy="-328.06287"
       rx="17.654667"
       ry="3.1090696"
       inkscape:transform-center-x="1.5066844"
       inkscape:transform-center-y="-9.992939"
       transform="matrix(0.92873723,-0.37073868,-0.93178436,-0.36301226,0,0)" />
  </g>
</svg>
